<svg width="49" height="49" viewBox="0 0 49 49" fill="none" xmlns="http://www.w3.org/2000/svg">
<g clip-path="url(#clip0_2_310)">
<path d="M24.9666 46.6689C37.4256 46.6689 47.5256 36.5689 47.5256 24.1099C47.5256 11.651 37.4256 1.55103 24.9666 1.55103C12.5077 1.55103 2.40771 11.651 2.40771 24.1099C2.40771 36.5689 12.5077 46.6689 24.9666 46.6689Z" fill="white" stroke="#1E40AF" stroke-width="1.43993"/>
<path d="M20.6468 18.3502H12.9672V26.0299H20.6468V18.3502Z" fill="url(#paint0_linear_2_310)"/>
<path d="M12.9672 18.3502L15.847 15.4703H23.5267L20.6468 18.3502H12.9672Z" fill="#60A5FA"/>
<path d="M20.6469 18.3502L23.5267 15.4703V23.15L20.6469 26.0298V18.3502Z" fill="#3B82F6"/>
<g opacity="0.9">
<path d="M15.3671 22.19H14.4071V24.5899H15.3671V22.19Z" fill="white"/>
<path d="M16.807 20.7501H15.847V24.5899H16.807V20.7501Z" fill="white"/>
<path d="M18.2469 23.15H17.287V24.5899H18.2469V23.15Z" fill="white"/>
<path d="M19.6869 21.23H18.7269V24.5899H19.6869V21.23Z" fill="white"/>
</g>
<path d="M33.1262 16.4303C36.006 19.3102 38.8859 22.19 38.8859 25.0699C38.8859 27.9497 36.39 30.8296 33.1262 30.8296C29.8623 30.8296 27.3665 27.9497 27.3665 25.0699C27.3665 22.19 30.2463 19.3102 33.1262 16.4303Z" fill="url(#paint1_linear_2_310)"/>
<path opacity="0.25" d="M33.1262 27.9497C34.4516 27.9497 35.5261 26.6604 35.5261 25.0699C35.5261 23.4794 34.4516 22.19 33.1262 22.19C31.8008 22.19 30.7263 23.4794 30.7263 25.0699C30.7263 26.6604 31.8008 27.9497 33.1262 27.9497Z" fill="white"/>
<path opacity="0.9" d="M33.1262 26.9898C34.1865 26.9898 35.0461 26.1302 35.0461 25.0699C35.0461 24.0095 34.1865 23.15 33.1262 23.15C32.0659 23.15 31.2063 24.0095 31.2063 25.0699C31.2063 26.1302 32.0659 26.9898 33.1262 26.9898Z" fill="white"/>
<path d="M34.6968 23.8702C34.6518 23.7325 34.5925 23.6091 34.5189 23.5C34.4466 23.3895 34.36 23.2955 34.2591 23.2177C34.1596 23.14 34.0464 23.0807 33.9196 23.0398C33.7928 22.9989 33.6537 22.9784 33.5024 22.9784C33.2542 22.9784 33.0285 23.0425 32.8253 23.1707C32.6222 23.2989 32.4606 23.4877 32.3406 23.7373C32.2206 23.9868 32.1606 24.2929 32.1606 24.6556C32.1606 25.0183 32.2213 25.3244 32.3426 25.574C32.464 25.8235 32.6283 26.0124 32.8356 26.1405C33.0428 26.2687 33.276 26.3328 33.5351 26.3328C33.7751 26.3328 33.9864 26.2817 34.1691 26.1794C34.3532 26.0758 34.4964 25.9299 34.5987 25.7417C34.7023 25.5522 34.7541 25.3292 34.7541 25.0729L34.9096 25.1056H33.6496V24.6556H35.245V25.1056C35.245 25.4506 35.1714 25.7506 35.0241 26.0056C34.8782 26.2605 34.6764 26.4583 34.4187 26.5987C34.1623 26.7378 33.8678 26.8073 33.5351 26.8073C33.1642 26.8073 32.8383 26.7201 32.5574 26.5455C32.2779 26.371 32.0597 26.1228 31.9029 25.801C31.7474 25.4792 31.6697 25.0974 31.6697 24.6556C31.6697 24.3243 31.714 24.0263 31.8027 23.7618C31.8927 23.4959 32.0195 23.2695 32.1831 23.0827C32.3467 22.8959 32.5404 22.7528 32.764 22.6532C32.9876 22.5537 33.2337 22.5039 33.5024 22.5039C33.7233 22.5039 33.9292 22.5373 34.1201 22.6041C34.3123 22.6696 34.4834 22.763 34.6334 22.8843C34.7848 23.0043 34.9109 23.1482 35.0118 23.3159C35.1127 23.4823 35.1823 23.667 35.2205 23.8702H34.6968Z" fill="#DC2626"/>
<path d="M10.5673 38.5093L14.4071 36.5893L18.2469 37.5493L22.0867 35.6294L25.9265 37.0693L29.7663 35.1494L33.6062 38.0293L37.446 36.1094L39.3659 37.5493" stroke="url(#paint2_linear_2_310)" stroke-width="1.43993" stroke-linecap="round" stroke-linejoin="round"/>
<path d="M14.4071 37.5493C14.9373 37.5493 15.3671 37.1195 15.3671 36.5893C15.3671 36.0592 14.9373 35.6294 14.4071 35.6294C13.8769 35.6294 13.4471 36.0592 13.4471 36.5893C13.4471 37.1195 13.8769 37.5493 14.4071 37.5493Z" fill="url(#paint3_linear_2_310)"/>
<path d="M22.0867 36.5893C22.6168 36.5893 23.0466 36.1596 23.0466 35.6294C23.0466 35.0992 22.6168 34.6694 22.0867 34.6694C21.5565 34.6694 21.1267 35.0992 21.1267 35.6294C21.1267 36.1596 21.5565 36.5893 22.0867 36.5893Z" fill="url(#paint4_linear_2_310)"/>
<path d="M29.7664 36.1094C30.2965 36.1094 30.7263 35.6796 30.7263 35.1494C30.7263 34.6192 30.2965 34.1895 29.7664 34.1895C29.2362 34.1895 28.8064 34.6192 28.8064 35.1494C28.8064 35.6796 29.2362 36.1094 29.7664 36.1094Z" fill="url(#paint5_linear_2_310)"/>
<path d="M37.4459 37.0693C37.9761 37.0693 38.4059 36.6395 38.4059 36.1094C38.4059 35.5792 37.9761 35.1494 37.4459 35.1494C36.9157 35.1494 36.486 35.5792 36.486 36.1094C36.486 36.6395 36.9157 37.0693 37.4459 37.0693Z" fill="url(#paint6_linear_2_310)"/>
</g>
<defs>
<linearGradient id="paint0_linear_2_310" x1="12.9672" y1="18.3502" x2="780.93" y2="786.313" gradientUnits="userSpaceOnUse">
<stop stop-color="#1E40AF"/>
<stop offset="0.5" stop-color="#3B82F6"/>
<stop offset="1" stop-color="#60A5FA"/>
</linearGradient>
<linearGradient id="paint1_linear_2_310" x1="27.3665" y1="16.4303" x2="1432.18" y2="1140.28" gradientUnits="userSpaceOnUse">
<stop stop-color="#DC2626"/>
<stop offset="1" stop-color="#EF4444"/>
</linearGradient>
<linearGradient id="paint2_linear_2_310" x1="10.5673" y1="35.1494" x2="87.9108" y2="698.094" gradientUnits="userSpaceOnUse">
<stop stop-color="#059669"/>
<stop offset="1" stop-color="#10B981"/>
</linearGradient>
<linearGradient id="paint3_linear_2_310" x1="13.4471" y1="35.6294" x2="205.438" y2="227.62" gradientUnits="userSpaceOnUse">
<stop stop-color="#059669"/>
<stop offset="1" stop-color="#10B981"/>
</linearGradient>
<linearGradient id="paint4_linear_2_310" x1="21.1267" y1="34.6694" x2="213.118" y2="226.66" gradientUnits="userSpaceOnUse">
<stop stop-color="#059669"/>
<stop offset="1" stop-color="#10B981"/>
</linearGradient>
<linearGradient id="paint5_linear_2_310" x1="28.8064" y1="34.1895" x2="220.797" y2="226.18" gradientUnits="userSpaceOnUse">
<stop stop-color="#059669"/>
<stop offset="1" stop-color="#10B981"/>
</linearGradient>
<linearGradient id="paint6_linear_2_310" x1="36.486" y1="35.1494" x2="228.477" y2="227.14" gradientUnits="userSpaceOnUse">
<stop stop-color="#059669"/>
<stop offset="1" stop-color="#10B981"/>
</linearGradient>
<clipPath id="clip0_2_310">
<rect width="47.9977" height="47.9977" fill="white" transform="translate(0.967773 0.111084)"/>
</clipPath>
</defs>
</svg>
